<svg xmlns="http://www.w3.org/2000/svg" viewBox="0 0 823.5 810.62"><path d="M318.3,426.5q-15.75-14.7-38.1-14.7h-50a13.76,13.76,0,0,0-10,4.2,13.58,13.58,0,0,0-4.1,10V570a14.07,14.07,0,0,0,4.1,10,13.9,13.9,0,0,0,10,4.1A14.17,14.17,0,0,0,244.4,570V512.4h24.5l32,64.9c2.6,5.4,6.8,8,12.7,8a13.83,13.83,0,0,0,13.4-9.6,13.51,13.51,0,0,0-.6-10.8L299,509.3A52.11,52.11,0,0,0,324.1,491a46.43,46.43,0,0,0,9.9-28.9C334,448.2,328.7,436.3,318.3,426.5Zm-19.9,50.9A26.77,26.77,0,0,1,281,484H244.2V440.2H280a26.64,26.64,0,0,1,18,6.4c5,4.3,7.5,9.4,7.5,15.6C305.5,468,303.2,473.1,298.4,477.4Z" transform="translate(0 0.02)"/><path d="M443.2,498.2c-10.6-9.9-23.3-14.9-38.3-14.9l-32.6.1a14.34,14.34,0,0,0-14.2,14.2V625a14.34,14.34,0,0,0,14.2,14.2,13.82,13.82,0,0,0,10.1-4.2,13.58,13.58,0,0,0,4.1-10V584.7h17.7l.7.1a13.58,13.58,0,0,0,1.5-.1h.4c14.5-.5,26.8-5.6,37-15.4s15.3-21.6,15.3-35.3C459.1,520.1,453.8,508.1,443.2,498.2Zm-20,51.2a26.6,26.6,0,0,1-17.5,6.7H386.5V511.9h18.4a27,27,0,0,1,18.1,6.5q7.5,6.45,7.5,15.6C430.5,539.9,428,545.1,423.2,549.4Z" transform="translate(0 0.02)"/><path d="M486.2,570.1a14,14,0,0,0,14.1,14.1,13.74,13.74,0,0,0,10-4.1,13.29,13.29,0,0,0,4.2-10A14.17,14.17,0,0,0,500.3,556a14.07,14.07,0,0,0-10,4.1A13.74,13.74,0,0,0,486.2,570.1Z" transform="translate(0 0.02)"/><path d="M446.7,210.19a20,20,0,0,0-35.05-19.26c-2.15,3.84-4,7.19-5.58,9.93-68.45,13.28-131.83,4-153.72-.06-14.68-26-59.71-105.55-68.72-120.85-1.55-2.63-1.29-5.45-.5-6.48,1-1.36,6.12-2.59,15.29-.08a169.72,169.72,0,0,1,22.85,8.44A138.3,138.3,0,0,0,237.67,88l27.68,61.69a20,20,0,1,0,36.5-16.38L277.94,80.05a75.7,75.7,0,0,0,14.58-17.49C306.86,39.81,318.83,39.92,327.58,40H331c8.74-.07,20.69-.17,35,22.57,24.72,39.23,51.68,27.69,71.37,19.26a170.92,170.92,0,0,1,22.73-8.43c9.17-2.51,14.25-1.28,15.29.08.78,1,1,3.83-.49,6.45-3.58,6-12.75,22-25.18,43.91a20,20,0,0,0,34.8,19.74c12.15-21.43,21.41-37.59,24.77-43.22l.06-.1c9.6-16.29,8.72-36.82-2.18-51.08-5.73-7.49-22.81-23.88-57.67-14.35A211.69,211.69,0,0,0,421.6,45.05c-5.06,2.16-11.93,5.11-14.4,5.2-.67-.43-3.18-2.35-7.36-9C373.72-.37,343.55-.12,330.68,0h-2.76c-12.87-.1-43-.36-69.24,41.25-4.14,6.57-6.64,8.51-7.33,9h-.18c-2.59-.2-9.24-3-14.17-5.15a208,208,0,0,0-28-10.24c-34.82-9.52-51.9,6.87-57.63,14.36-10.9,14.26-11.78,34.79-2.18,51.08,7.77,13.2,44.38,77.84,62.59,110q-9.4,5.17-18.85,11.19c-56,35.86-104.16,89.78-139.3,155.92S0,514.92,0,584.2C0,632,8.79,670.85,26.87,703.06c16.76,29.86,41.85,53.55,74.57,70.41C165,806.19,252.27,810.6,329.3,810.6s164.35-4.41,227.86-37.13c32.72-16.86,57.81-40.55,74.57-70.41C649.81,670.85,658.6,632,658.6,584.2c0-76-23.07-156.64-65-226.94C555.41,293.09,503.79,241.58,446.7,210.19ZM329.3,770.6C146.08,770.6,40,740.1,40,584.2c0-127.94,71.75-263.26,174.46-329a279.27,279.27,0,0,1,27.65-15.57,467.49,467.49,0,0,0,88.57,8.25,434.68,434.68,0,0,0,85.83-8.28C532.13,296.29,618.6,443.08,618.6,584.2,618.6,740.1,512.52,770.6,329.3,770.6Z" transform="translate(0 0.02)"/><path d="M726.4,184.5a20,20,0,0,0,20-20V128a20,20,0,0,0-40,0v36.5A20,20,0,0,0,726.4,184.5Z" transform="translate(0 0.02)"/><path d="M726.4,76.5a20,20,0,0,0,20-20V50.9a20,20,0,1,0-40,0v5.6A20,20,0,0,0,726.4,76.5Z" transform="translate(0 0.02)"/><path d="M817.65,294.27a20,20,0,0,0-28.28,0l-43,42.91V241.5a20,20,0,0,0-40,0v95.62l-42.86-42.86a20,20,0,1,0-28.28,28.28l77,77a20,20,0,0,0,28.27,0l77.1-77A20,20,0,0,0,817.65,294.27Z" transform="translate(0 0.02)"/></svg>