<svg xmlns="http://www.w3.org/2000/svg" xml:space="preserve" style="enable-background:new 0 0 24 24" viewBox="0 0 24 24" id="hotel">
  <g id="Layer_2">
    <g>
      <path d="M19.765625,8.248047c-1.833984-0.332031-3.697266-0.332031-5.53125,0C12.360352,8.586426,11,10.119141,11,11.892578V15H3
			V5.999512c0-0.552246-0.447266-1-1-1s-1,0.447754-1,1V16v2c0,0.552734,0.447266,1,1,1s1-0.447266,1-1v-1h9h9v1
			c0,0.552734,0.447266,1,1,1s1-0.447266,1-1v-2v-4.107422C23,10.119141,21.639648,8.586426,19.765625,8.248047z M13,11.892578
			c0-0.805176,0.668945-1.510254,1.589844-1.676758c1.598633-0.289062,3.219727-0.289062,4.820312,0
			C20.331055,10.382324,21,11.087402,21,11.892578V15h-8V11.892578z"></path>
      <circle cx="7" cy="11" r="3"></circle>
    </g>
  </g>
</svg>
